<svg width="55" height="55" viewBox="0 0 55 55" fill="none" xmlns="http://www.w3.org/2000/svg">
<path d="M53.9129 37.0219L50.3594 36.3816C50.4023 35.591 50.398 34.7918 50.3594 33.9926L53.9688 33.4555C54.0879 33.4381 54.2024 33.3974 54.3058 33.3358C54.4092 33.2741 54.4994 33.1926 54.5712 33.096C54.6431 32.9994 54.6951 32.8896 54.7245 32.7729C54.7538 32.6561 54.7598 32.5347 54.7422 32.4156C54.6691 31.9172 54.2008 31.5734 53.7024 31.6422L50.1875 32.1664C49.8008 29.5969 48.8125 27.0359 47.3172 24.7285C47.7684 20.423 48.632 8.75273 45.1301 6.40234C42.3371 4.52891 35.6941 11.4813 33.5543 13.9777C33.0602 14.5535 32.609 15.0734 32.1965 15.5461C30.7012 15.3184 29.1801 15.1938 27.6633 15.1938C26.1465 15.1895 24.6297 15.3184 23.1344 15.5461C22.7219 15.0734 22.2707 14.5535 21.7766 13.9777C19.6367 11.4813 12.9938 4.52891 10.2051 6.40234C6.70313 8.75273 7.5711 20.423 8.01797 24.7285C6.52696 27.0316 5.53008 29.5969 5.14766 32.1664L1.63282 31.6422C1.13438 31.5734 0.666018 31.9129 0.588675 32.4156C0.511331 32.9141 0.859378 33.3824 1.35782 33.4555L4.96719 33.9926C4.92852 34.7918 4.92422 35.591 4.96719 36.3816L1.41797 37.0219C1.19184 37.0615 0.988835 37.1846 0.849188 37.3668C0.709541 37.549 0.643439 37.7771 0.663981 38.0057C0.684522 38.2344 0.790207 38.447 0.960096 38.6014C1.12998 38.7558 1.35168 38.8408 1.58125 38.8395C1.63282 38.8395 1.68867 38.8352 1.74453 38.8266L5.15625 38.2121C5.29805 39.1145 5.5043 40.0039 5.80078 40.8676L3.01641 41.7484C2.78526 41.823 2.59287 41.9858 2.48104 42.2014C2.36921 42.417 2.34697 42.6681 2.41914 42.9C2.49277 43.1318 2.65541 43.3249 2.87133 43.4369C3.08725 43.5489 3.3388 43.5706 3.57071 43.4973L6.51406 42.5648C7.36485 44.2363 8.61094 45.7746 10.3727 47.0895C12.9723 49.0273 16.2035 50.3422 19.5379 51.0555C20.8012 51.3262 24.0754 51.9578 27.5086 51.9578C30.9418 51.9578 34.534 51.3262 35.8016 51.0555C39.1316 50.3422 42.3672 49.0273 44.9668 47.0895C46.7285 45.7746 47.9746 44.2363 48.8254 42.5648L51.7645 43.4973C51.9964 43.5706 52.2479 43.5489 52.4638 43.4369C52.6798 43.3249 52.8424 43.1318 52.916 42.9C53.0707 42.4188 52.8043 41.9031 52.3231 41.7484L49.5387 40.8633C49.8352 40.0039 50.0457 39.1145 50.1832 38.2078L53.5992 38.8223C53.8383 38.8637 54.0841 38.8094 54.2835 38.6711C54.4829 38.5328 54.6199 38.3217 54.6648 38.0832C54.7013 37.8434 54.6434 37.5987 54.5031 37.4007C54.3629 37.2028 54.1513 37.067 53.9129 37.0219Z" fill="#F79329"/>
<path d="M30.4863 44.3394C30.5766 44.5371 30.4133 44.8551 30.366 45.0355C30.3059 45.2633 30.25 45.4867 30.1813 45.7059C29.8547 46.7887 29.2961 47.8027 28.0973 48.0391C26.9887 48.2582 25.9231 47.5019 25.5063 46.5008C25.3516 46.1355 25.2313 45.7574 25.1023 45.3836C25.0336 45.1773 24.9649 44.9711 24.9004 44.7691C24.8531 44.623 24.7285 44.391 24.7457 44.2406C25.3559 44.2019 26.0649 43.9269 26.5891 43.6176C26.7609 43.5144 26.9543 43.4586 27.1133 43.334C27.2551 43.2223 27.3453 43.0633 27.5258 43.0074C27.7063 43.2008 28.0113 43.3082 28.2348 43.4586C28.5055 43.6391 28.7805 43.798 29.0727 43.9355C29.3434 44.0644 29.6656 44.0644 29.9449 44.1375C30.091 44.1762 30.3359 44.1547 30.4434 44.2793C30.4648 44.2965 30.4777 44.3137 30.4863 44.3394Z" fill="#ED6C30"/>
<path d="M20.1609 34.8348C20.1609 36.807 18.7387 38.4012 16.9898 38.4012C15.241 38.4012 13.8187 36.8027 13.8187 34.8348C13.8187 32.8582 15.241 31.2641 16.9898 31.2641C18.7387 31.2598 20.1609 32.8582 20.1609 34.8348ZM34.9164 34.8348C34.9164 36.807 36.3344 38.4012 38.0875 38.4012C39.8363 38.4012 41.2586 36.8027 41.2586 34.8348C41.2586 32.8582 39.8363 31.2641 38.0875 31.2641C36.3387 31.2598 34.9164 32.8582 34.9164 34.8348ZM27.7063 43.5402C27.3754 43.5402 27.109 43.2738 27.109 42.943V39.441C27.109 39.1102 27.3754 38.8437 27.7063 38.8437C28.0371 38.8437 28.3035 39.1102 28.3035 39.441V42.943C28.3035 43.2738 28.0371 43.5402 27.7063 43.5402Z" fill="#2F2F2F"/>
<path d="M24.7027 44.9453C24.518 44.9453 24.3203 44.9367 24.1184 44.9195C21.6863 44.7047 20.6164 42.8184 20.3887 41.8473C20.3449 41.6575 20.3783 41.4582 20.4814 41.293C20.5845 41.1279 20.749 41.0104 20.9387 40.9664C21.0324 40.9441 21.1295 40.9405 21.2246 40.9559C21.3197 40.9713 21.4107 41.0053 21.4926 41.056C21.5745 41.1067 21.6455 41.1732 21.7016 41.2514C21.7577 41.3297 21.7978 41.4183 21.8195 41.5121C21.841 41.6023 22.2965 43.2824 24.2473 43.4586C26.2883 43.6434 27.0789 42.5734 27.1133 42.5262C27.3496 42.1996 27.8008 42.118 28.1316 42.3457C28.4625 42.5734 28.5484 43.0203 28.325 43.3555C28.2777 43.4242 27.2207 44.9453 24.7027 44.9453Z" fill="#2F2F2F"/>
<path d="M30.7313 44.9453C28.2133 44.9453 27.1563 43.4242 27.109 43.3555C26.8813 43.0203 26.9715 42.5605 27.3066 42.3328C27.6461 42.1051 28.1016 42.1953 28.3293 42.5305C28.3551 42.5648 29.1586 43.6348 31.1867 43.4543C33.1762 43.2781 33.6102 41.5293 33.6145 41.5121C33.709 41.1168 34.1043 40.8719 34.4953 40.9621C34.8906 41.0566 35.1355 41.4477 35.0453 41.843C34.8176 42.8098 33.7434 44.7004 31.3156 44.9152C31.1094 44.9367 30.916 44.9453 30.7313 44.9453ZM25.4461 39.4152C25.4805 39.8664 25.7856 40.3391 26.2582 40.627C26.6363 40.8633 27.1734 40.9793 27.702 40.9793C28.2262 40.9793 28.7633 40.8633 29.1414 40.627C29.6141 40.3348 29.9191 39.8664 29.9535 39.4152C29.9879 38.9855 29.8891 38.5473 29.4207 38.2465C29.1629 38.0789 28.8406 37.9672 28.5098 37.907C28.3852 37.8855 28.0586 37.8297 27.7148 37.8297C27.3754 37.8297 27.0188 37.8813 26.8898 37.907C26.559 37.9672 26.2367 38.0789 25.9789 38.2465C25.5148 38.5516 25.4117 38.9855 25.4461 39.4152Z" fill="#2F2F2F"/>
<path d="M27.6848 41.6195C27.023 41.6195 26.3785 41.4562 25.9187 41.1727C25.2871 40.7816 24.8574 40.1285 24.8059 39.4668C24.7328 38.5043 25.2184 37.9844 25.6309 37.7137C25.9488 37.5117 26.3441 37.3613 26.7738 37.284C26.9457 37.2496 27.3367 37.198 27.7105 37.198C28.1145 37.198 28.484 37.2582 28.6215 37.284C29.0512 37.3613 29.4465 37.5117 29.7602 37.7137C30.177 37.9844 30.6625 38.5086 30.5852 39.4711C30.5336 40.1285 30.1082 40.7816 29.4723 41.177C29.0125 41.4605 28.368 41.6238 27.7063 41.6238H27.6848V41.6195ZM27.7148 38.4699C27.4227 38.4699 27.109 38.5172 27.0102 38.5344C26.7438 38.5859 26.4988 38.6719 26.327 38.7836C26.1594 38.891 26.0605 39.0285 26.0863 39.3637C26.1078 39.6215 26.3055 39.9008 26.5977 40.0812C26.8598 40.2445 27.268 40.3391 27.6934 40.3391V40.9793L27.702 40.3391C28.1445 40.3391 28.5527 40.2402 28.8105 40.0812C29.0984 39.9051 29.3047 39.6172 29.3219 39.3637C29.352 39.0285 29.2488 38.891 29.0813 38.7836C28.9094 38.6719 28.6645 38.5859 28.4023 38.5344C28.3293 38.5258 28.0242 38.4699 27.7148 38.4699Z" fill="#2F2F2F"/>
<path d="M27.7063 48.8383C26.4902 48.8383 25.3215 48.0434 24.8016 46.793C24.5609 46.2129 24.0754 44.6918 24.0539 44.6273C23.925 44.2277 24.1484 43.798 24.5481 43.6691C24.9477 43.5402 25.3773 43.7637 25.5063 44.1633C25.6738 44.6875 26.0348 45.7918 26.2066 46.2043C26.4731 46.8445 27.1777 47.4418 27.9469 47.2914C28.6516 47.1539 29.1156 46.5953 29.4508 45.4867C29.4938 45.3363 29.584 44.9969 29.6699 44.6789C29.7344 44.4297 29.7988 44.1891 29.8332 44.0644C29.9492 43.6605 30.3617 43.4242 30.7742 43.5402C31.1781 43.6562 31.4145 44.0773 31.2984 44.4812C31.2641 44.6016 31.2039 44.8293 31.1395 45.0699C31.0535 45.4008 30.959 45.7574 30.9074 45.925C30.7184 46.5437 30.1512 48.4086 28.2391 48.7867C28.0672 48.8211 27.8867 48.8383 27.7063 48.8383Z" fill="#2F2F2F"/>
</svg>
