<svg width="25" height="25" viewBox="0 0 25 25" fill="none" xmlns="http://www.w3.org/2000/svg">
<path d="M15.5984 12.8593C15.5984 13.6922 15.2675 14.4911 14.6785 15.0801C14.0895 15.6691 13.2906 16 12.4576 16C11.6247 16 10.8258 15.6691 10.2368 15.0801C9.64779 14.4911 9.31689 13.6922 9.31689 12.8593C9.31689 12.0263 9.64779 11.2274 10.2368 10.6384C10.8258 10.0494 11.6247 9.71851 12.4576 9.71851C13.2906 9.71851 14.0895 10.0494 14.6785 10.6384C15.2675 11.2274 15.5984 12.0263 15.5984 12.8593Z" stroke="#8E4585" stroke-width="1.5" stroke-linecap="round" stroke-linejoin="round"/>
<path d="M12.4577 0.924431C15.2341 0.924431 17.4803 3.33275 17.4803 6.10917C17.884 6.0028 18.3036 5.94962 18.7391 5.94962C19.8808 5.94909 20.9886 6.33731 21.8802 7.05038C22.7717 7.76344 23.3939 8.75884 23.6443 9.8727C23.8947 10.9866 23.7584 12.1525 23.2577 13.1785C22.7571 14.2045 21.922 15.0295 20.8899 15.5176C21.2988 16.0701 21.5899 16.7007 21.7453 17.3703C21.9008 18.0399 21.9172 18.7342 21.7935 19.4104C21.6699 20.0866 21.4088 20.7302 21.0265 21.3014C20.6442 21.8727 20.1488 22.3594 19.5709 22.7316C18.9929 23.1037 18.3448 23.3533 17.6666 23.465C16.9883 23.5767 16.2944 23.548 15.6276 23.3807C14.9609 23.2135 14.3356 22.9112 13.7903 22.4927C13.2451 22.0741 12.7915 21.5482 12.4577 20.9473C12.1238 21.5482 11.6702 22.0741 11.125 22.4927C10.5797 22.9112 9.95438 23.2135 9.28766 23.3807C8.62093 23.548 7.92699 23.5767 7.24874 23.465C6.57049 23.3533 5.92236 23.1037 5.34443 22.7316C4.7665 22.3594 4.27106 21.8727 3.88876 21.3014C3.50646 20.7302 3.24541 20.0866 3.12178 19.4104C2.99815 18.7342 3.01455 18.0399 3.16997 17.3703C3.32539 16.7007 3.61653 16.0701 4.02539 15.5176C2.891 14.9848 1.99665 14.0473 1.51782 12.8891C1.03899 11.7308 1.01023 10.4355 1.4372 9.25719C1.86416 8.07886 2.71603 7.10262 3.82565 6.51998C4.93528 5.93735 6.22258 5.79038 7.43498 6.10791C7.43498 3.33401 9.68249 0.924431 12.4577 0.924431Z" stroke="#8E4585" stroke-width="1.5" stroke-linecap="round" stroke-linejoin="round"/>
</svg>
