<svg width="33" height="33" viewBox="0 0 33 33" fill="none" xmlns="http://www.w3.org/2000/svg">
<g filter="url(#filter0_d_15_99)">
<path d="M26.2222 0C26.9589 0 27.6655 0.292658 28.1864 0.813592C28.7073 1.33453 29 2.04107 29 2.77778V22.2222C29 22.9589 28.7073 23.6655 28.1864 24.1864C27.6655 24.7073 26.9589 25 26.2222 25H6.77778C6.04107 25 5.33453 24.7073 4.81359 24.1864C4.29266 23.6655 4 22.9589 4 22.2222V2.77778C4 2.04107 4.29266 1.33453 4.81359 0.813592C5.33453 0.292658 6.04107 0 6.77778 0H26.2222ZM25.5278 21.5278V14.1667C25.5278 12.9658 25.0507 11.8142 24.2016 10.965C23.3525 10.1159 22.2008 9.63889 21 9.63889C19.8194 9.63889 18.4444 10.3611 17.7778 11.4444V9.90278H13.9028V21.5278H17.7778V14.6806C17.7778 13.6111 18.6389 12.7361 19.7083 12.7361C20.224 12.7361 20.7186 12.941 21.0833 13.3056C21.4479 13.6703 21.6528 14.1649 21.6528 14.6806V21.5278H25.5278ZM9.38889 7.72222C10.0077 7.72222 10.6012 7.47639 11.0388 7.03881C11.4764 6.60122 11.7222 6.00773 11.7222 5.38889C11.7222 4.09722 10.6806 3.04167 9.38889 3.04167C8.76637 3.04167 8.16934 3.28896 7.72915 3.72915C7.28896 4.16934 7.04167 4.76637 7.04167 5.38889C7.04167 6.68056 8.09722 7.72222 9.38889 7.72222ZM11.3194 21.5278V9.90278H7.47222V21.5278H11.3194Z" fill="#757575"/>
</g>
<defs>
<filter id="filter0_d_15_99" x="0" y="0" width="33" height="33" filterUnits="userSpaceOnUse" color-interpolation-filters="sRGB">
<feFlood flood-opacity="0" result="BackgroundImageFix"/>
<feColorMatrix in="SourceAlpha" type="matrix" values="0 0 0 0 0 0 0 0 0 0 0 0 0 0 0 0 0 0 127 0" result="hardAlpha"/>
<feOffset dy="4"/>
<feGaussianBlur stdDeviation="2"/>
<feComposite in2="hardAlpha" operator="out"/>
<feColorMatrix type="matrix" values="0 0 0 0 0 0 0 0 0 0 0 0 0 0 0 0 0 0 0.25 0"/>
<feBlend mode="normal" in2="BackgroundImageFix" result="effect1_dropShadow_15_99"/>
<feBlend mode="normal" in="SourceGraphic" in2="effect1_dropShadow_15_99" result="shape"/>
</filter>
</defs>
</svg>
