<svg width="25" height="24" viewBox="0 0 25 24" fill="none" xmlns="http://www.w3.org/2000/svg">
<g filter="url(#filter0_d_80_2)">
<path d="M12.9091 8C11.7979 8 10.8468 7.60833 10.0555 6.825C9.26427 6.04167 8.86865 5.1 8.86865 4C8.86865 2.9 9.26427 1.95833 10.0555 1.175C10.8468 0.391667 11.7979 0 12.9091 0C14.0202 0 14.9713 0.391667 15.7626 1.175C16.5538 1.95833 16.9495 2.9 16.9495 4C16.9495 5.1 16.5538 6.04167 15.7626 6.825C14.9713 7.60833 14.0202 8 12.9091 8ZM4.82825 16V13.2C4.82825 12.6333 4.97555 12.1125 5.27017 11.6375C5.56478 11.1625 5.95619 10.8 6.44441 10.55C7.48818 10.0333 8.54879 9.64583 9.62623 9.3875C10.7037 9.12917 11.7979 9 12.9091 9C14.0202 9 15.1144 9.12917 16.1919 9.3875C17.2693 9.64583 18.3299 10.0333 19.3737 10.55C19.8619 10.8 20.2533 11.1625 20.5479 11.6375C20.8426 12.1125 20.9899 12.6333 20.9899 13.2V16H4.82825ZM6.84845 14H18.9697V13.2C18.9697 13.0167 18.9234 12.85 18.8308 12.7C18.7382 12.55 18.6161 12.4333 18.4646 12.35C17.5555 11.9 16.638 11.5625 15.7121 11.3375C14.7862 11.1125 13.8518 11 12.9091 11C11.9663 11 11.032 11.1125 10.106 11.3375C9.1801 11.5625 8.26259 11.9 7.3535 12.35C7.20198 12.4333 7.07993 12.55 6.98734 12.7C6.89475 12.85 6.84845 13.0167 6.84845 13.2V14ZM12.9091 6C13.4646 6 13.9402 5.80417 14.3358 5.4125C14.7314 5.02083 14.9293 4.55 14.9293 4C14.9293 3.45 14.7314 2.97917 14.3358 2.5875C13.9402 2.19583 13.4646 2 12.9091 2C12.3535 2 11.8779 2.19583 11.4823 2.5875C11.0867 2.97917 10.8889 3.45 10.8889 4C10.8889 4.55 11.0867 5.02083 11.4823 5.4125C11.8779 5.80417 12.3535 6 12.9091 6Z" fill="#8E4585"/>
</g>
<defs>
<filter id="filter0_d_80_2" x="0.828247" y="0" width="24.1616" height="24" filterUnits="userSpaceOnUse" color-interpolation-filters="sRGB">
<feFlood flood-opacity="0" result="BackgroundImageFix"/>
<feColorMatrix in="SourceAlpha" type="matrix" values="0 0 0 0 0 0 0 0 0 0 0 0 0 0 0 0 0 0 127 0" result="hardAlpha"/>
<feOffset dy="4"/>
<feGaussianBlur stdDeviation="2"/>
<feComposite in2="hardAlpha" operator="out"/>
<feColorMatrix type="matrix" values="0 0 0 0 0 0 0 0 0 0 0 0 0 0 0 0 0 0 0.25 0"/>
<feBlend mode="normal" in2="BackgroundImageFix" result="effect1_dropShadow_80_2"/>
<feBlend mode="normal" in="SourceGraphic" in2="effect1_dropShadow_80_2" result="shape"/>
</filter>
</defs>
</svg>
